REM DISCID C20ADA0D
REM COMMENT "ExactAudioCopy v1.0b3"
PERFORMER "Unknown Artist"
TITLE "Unknown Title"
FILE "elhazardbox5.wav" WAVE
  TRACK 01 AUDIO
    TITLE "Track01"
    PERFORMER "Unknown Artist"
    ISRC JPPIO9506450
    INDEX 01 00:00:00
    INDEX 02 01:51:22
    INDEX 03 03:26:27
  TRACK 02 AUDIO
    TITLE "Track02"
    PERFORMER "Unknown Artist"
    ISRC JPPIO9506470
    INDEX 00 05:03:67
    INDEX 01 05:05:42
    INDEX 02 06:15:70
    INDEX 03 07:34:15
    INDEX 04 08:56:67
  TRACK 03 AUDIO
    TITLE "Track03"
    PERFORMER "Unknown Artist"
    ISRC JPPIO9602080
    INDEX 00 10:39:45
    INDEX 01 10:41:40
  TRACK 04 AUDIO
    TITLE "Track04"
    PERFORMER "Unknown Artist"
    ISRC JPPIO9602140
    INDEX 00 13:15:22
    INDEX 01 13:17:15
  TRACK 05 AUDIO
    TITLE "Track05"
    PERFORMER "Unknown Artist"
    ISRC JPPIO9602100
    INDEX 00 15:38:40
    INDEX 01 15:40:15
  TRACK 06 AUDIO
    TITLE "Track06"
    PERFORMER "Unknown Artist"
    ISRC JPPIO9506460
    INDEX 00 17:27:22
    INDEX 01 17:29:22
    INDEX 02 19:25:27
    INDEX 03 20:57:57
  TRACK 07 AUDIO
    TITLE "Track07"
    PERFORMER "Unknown Artist"
    ISRC JPPIO9506490
    INDEX 00 22:24:28
    INDEX 01 22:26:20
    INDEX 02 24:58:25
    INDEX 03 26:09:45
  TRACK 08 AUDIO
    TITLE "Track08"
    PERFORMER "Unknown Artist"
    ISRC JPPIO9506480
    INDEX 00 27:40:40
    INDEX 01 27:42:47
    INDEX 02 28:59:72
    INDEX 03 30:53:20
  TRACK 09 AUDIO
    TITLE "Track09"
    PERFORMER "Unknown Artist"
    ISRC JPPIO9602120
    INDEX 00 32:31:20
    INDEX 01 32:32:72
  TRACK 10 AUDIO
    TITLE "Track10"
    PERFORMER "Unknown Artist"
    ISRC JPPIO9602160
    INDEX 00 35:32:07
    INDEX 01 35:33:70
  TRACK 11 AUDIO
    TITLE "Track11"
    PERFORMER "Unknown Artist"
    ISRC JPPIO9506500
    INDEX 00 38:10:17
    INDEX 01 38:12:15
    INDEX 02 39:28:72
  TRACK 12 AUDIO
    TITLE "Track12"
    PERFORMER "Unknown Artist"
    ISRC JPPIO9602060
    INDEX 00 40:44:40
    INDEX 01 40:46:15
  TRACK 13 AUDIO
    TITLE "Track13"
    PERFORMER "Unknown Artist"
    ISRC JPPIO9602180
    INDEX 00 43:15:00
    INDEX 01 43:16:72
